<?xml version="1.0" encoding="UTF-8" standalone="no"?>
<svg
   fill="none"
   height="18"
   viewBox="0 0 18.012384 18"
   width="18.012384"
   version="1.1"
   id="svg12"
   sodipodi:docname="8675404_fluent_puzzle_cube_regular_icon.svg"
   xmlns:inkscape="http://www.inkscape.org/namespaces/inkscape"
   xmlns:sodipodi="http://sodipodi.sourceforge.net/DTD/sodipodi-0.dtd"
   xmlns="http://www.w3.org/2000/svg"
   xmlns:svg="http://www.w3.org/2000/svg">
  <defs
     id="defs16" />
  <sodipodi:namedview
     id="namedview14"
     pagecolor="#ffffff"
     bordercolor="#000000"
     borderopacity="0.25"
     inkscape:showpageshadow="2"
     inkscape:pageopacity="0.0"
     inkscape:pagecheckerboard="0"
     inkscape:deskcolor="#d1d1d1"
     showgrid="false" />
  <path
     d="M 18,12.5 V 3.25 C 18,1.4551 16.54493,0 14.75,0 H 3.25 C 1.4551,0 0,1.4551 0,3.25 v 11.5 C 0,16.54493 1.4551,18 3.25,18 H 12.5 V 12.5 Z M 12.5,11 V 7 h 4 v 4 z M 11,7 v 4 H 7 V 7 Z M 5.5,7 v 4 h -4 V 7 Z M 11,5.5 H 7 v -4 h 4 z m -5.5,0 h -4 V 3.25 C 1.5,2.2835 2.2835,1.5 3.25,1.5 H 5.5 Z m 0,11 H 3.25 C 2.2835,16.5 1.5,15.7165 1.5,14.75 V 12.5 h 4 z m 1.5,-4 h 4 v 4 H 7 Z m 5.5,-7 v -4 h 2.25 c 0.9665,0 1.75,0.7835 1.75,1.75 V 5.5 Z"
     fill="#212121"
     id="path10" />
  <path
     style="fill:#000080;stroke-width:0.101695"
     d="M 2.3898305,17.8069 C 1.7108631,17.59217 1.369865,17.371219 0.8847989,16.831709 0.025551,15.876018 0.0508475,16.11358 0.0508475,9 c 0,-5.8035131 0.013443,-6.2927984 0.1865288,-6.7893093 0.2481204,-0.711752 1.0213445,-1.551837 1.7182056,-1.8667793 L 2.4915254,0.1016949 H 9 15.508475 l 0.535943,0.2422165 c 0.660763,0.2986278 1.457463,1.1427402 1.711635,1.8134953 0.166789,0.4401509 0.18785,0.9556022 0.220371,5.3934403 l 0.03596,4.90678 H 15.209581 12.40678 v 2.745763 2.745763 l -4.805085,-0.0068 C 4.0255972,17.937287 2.6925689,17.902642 2.3898305,17.8069 Z M 5.5932203,14.491525 V 12.457627 H 3.5084746 1.4237288 v 1.274453 c 0,1.357012 0.1051436,1.800228 0.538752,2.271023 0.4009034,0.435286 0.7403131,0.514093 2.2324345,0.51834 l 1.398305,0.004 z m 5.4915257,0 V 12.457627 H 9 6.9152542 v 2.033898 2.033899 H 9 11.084746 Z M 5.5932203,9 V 6.9661017 H 3.5084746 1.4237288 V 9 11.033898 H 3.5084746 5.5932203 Z M 11.084746,9 V 6.9661017 H 9 6.9152542 V 9 11.033898 H 9 11.084746 Z m 5.491525,0 V 6.9661017 H 14.491525 12.40678 V 9 11.033898 h 2.084745 2.084746 z M 5.5932203,3.5084746 V 1.4745763 h -1.366261 c -1.4279277,0 -1.7793135,0.070723 -2.1810528,0.4389775 C 1.5550989,2.363453 1.4283834,2.8401523 1.4259622,4.2457627 l -0.00223,1.2966102 H 3.508478 5.5932237 Z m 5.4915257,0 V 1.4745763 H 9 6.9152542 V 3.5084746 5.5423729 H 9 11.084746 Z m 5.489292,0.7372881 C 16.571617,2.8401523 16.444901,2.363453 15.954094,1.9135538 15.552354,1.5452992 15.200968,1.4745763 13.773041,1.4745763 H 12.40678 v 2.0338983 2.0338983 h 2.084745 2.084746 l -0.0022,-1.2966102 z"
     id="path374" />
</svg>
